<svg width="0" height="0">
	<svg id="eye" viewBox="0 0 32 32" xmlns="http://www.w3.org/2000/svg" fill="currentcolor">
		<path fill-rule="evenodd" clip-rule="evenodd" d="M30.9396 15.66C28.5356 9.4417 22.6617 5.25053 15.9996 5C9.33748 5.25053 3.46354 9.4417 1.05957 15.66C0.980142 15.8797 0.980142 16.1203 1.05957 16.34C3.46354 22.5583 9.33748 26.7495 15.9996 27C22.6617 26.7495 28.5356 22.5583 30.9396 16.34C31.019 16.1203 31.019 15.8797 30.9396 15.66ZM10 16C10 12.6863 12.6863 10 16 10C19.3137 10 22 12.6863 22 16C22 19.3137 19.3137 22 16 22C12.6863 22 10 19.3137 10 16ZM12 16C12 18.2091 13.7909 20 16 20C17.0609 20 18.0783 19.5786 18.8284 18.8284C19.5786 18.0783 20 17.0609 20 16C20 13.7909 18.2091 12 16 12C13.7909 12 12 13.7909 12 16ZM3.06957 16C5.09957 21.07 10.6996 25 15.9996 25C21.2996 25 26.8996 21.07 28.9296 16C26.8996 10.93 21.2996 7 15.9996 7C10.6996 7 5.09957 10.93 3.06957 16Z" />
	</svg>

	<svg id="eye-crossed" viewBox="0 0 32 32" xmlns="http://www.w3.org/2000/svg" fill="currentcolor">
		<path fill-rule="evenodd" clip-rule="evenodd" d="M5.23957 22.51L6.66957 21.09C5.10379 19.6841 3.87355 17.9447 3.06957 16C5.09957 10.93 10.6996 7 15.9996 7C17.3635 7.018 18.715 7.26128 19.9996 7.72L21.5496 6.16C19.7922 5.41732 17.9073 5.02335 15.9996 5C9.33748 5.25053 3.46354 9.4417 1.05957 15.66C0.980142 15.8797 0.980142 16.1203 1.05957 16.34C1.94782 18.697 3.38 20.811 5.23957 22.51ZM25.1996 8.22C27.7977 10.087 29.7929 12.6732 30.9396 15.66C31.019 15.8797 31.019 16.1203 30.9396 16.34C28.5356 22.5583 22.6617 26.7495 15.9996 27C13.3636 26.9574 10.7835 26.234 8.50957 24.9L3.40957 30L1.99957 28.59L28.5896 2L29.9996 3.41L25.1996 8.22ZM15.6996 12.03C13.7187 12.1737 12.1433 13.7491 11.9996 15.73L10.1796 17.54C9.63612 15.476 10.23 13.2788 11.7392 11.7696C13.2483 10.2604 15.4456 9.66655 17.5096 10.21L15.6996 12.03ZM19.9996 16C19.991 17.4248 19.2252 18.7374 17.9892 19.4461C16.7531 20.1547 15.2335 20.1524 13.9996 19.44L19.4396 14C19.7991 14.6057 19.9923 15.2957 19.9996 16ZM9.99957 23.42C11.8435 24.4214 13.9016 24.9634 15.9996 25C21.2996 25 26.8996 21.07 28.9296 16C27.8485 13.4354 26.0542 11.235 23.7596 9.66L20.8896 12.53C22.544 14.9143 22.2547 18.141 20.2026 20.1931C18.1506 22.2452 14.9239 22.5344 12.5396 20.88L9.99957 23.42Z" />
	</svg>

	<svg id="user-activity" viewBox="0 0 32 32" xmlns="http://www.w3.org/2000/svg" fill="currentcolor">
		<path fill-rule="evenodd" clip-rule="evenodd" d="M25 23H24.979C24.5405 22.9898 24.1597 22.6956 24.039 22.274L20.87 11.19L18.935 16.35C18.7892 16.7403 18.4166 16.9993 18 17H14V15H17.307L20.064 7.649C20.2154 7.24473 20.6091 6.98326 21.0405 7.00053C21.4718 7.0178 21.8434 7.30992 21.962 7.725L25.073 18.617L27.052 12.684C27.1877 12.2756 27.5697 12 28 12H32V14H28.72L25.948 22.316C25.8126 22.7246 25.4304 23.0003 25 23ZM15 30H13V23C12.9983 21.3438 11.6562 20.0017 10 20H6C4.34383 20.0017 3.00165 21.3438 3 23V30H1V23C1.00331 20.2399 3.23995 18.0033 6 18H10C12.7601 18.0033 14.9967 20.2399 15 23V30ZM8 8C9.65685 8 11 9.34315 11 11C11 12.6569 9.65685 14 8 14C6.34315 14 5 12.6569 5 11C5 9.34315 6.34315 8 8 8ZM8 6C5.23858 6 3 8.23858 3 11C3 13.7614 5.23858 16 8 16C10.7614 16 13 13.7614 13 11C13 8.23858 10.7614 6 8 6Z" />
	</svg>

	<svg id="identity-card" viewBox="0 0 32 32" xmlns="http://www.w3.org/2000/svg" fill="currentcolor">
		<path fill-rule="evenodd" clip-rule="evenodd" d="M4 4H28C29.1046 4 30 4.89543 30 6V26C30 27.1046 29.1046 28 28 28H4C2.89543 28 2 27.1046 2 26V6C2 4.89543 2.89543 4 4 4ZM28 6V26H4V6H28ZM20 17C22.2091 17 24 15.2091 24 13C24 10.7909 22.2091 9 20 9C17.7909 9 16 10.7909 16 13C16 15.2091 17.7909 17 20 17ZM6 10H13V12H6V10ZM6 14H10V16H6V14ZM23 18C24.6569 18 26 19.3431 26 21V23H24V21C24 20.4477 23.5523 20 23 20H17C16.4477 20 16 20.4477 16 21V23H14V21C14 19.3431 15.3431 18 17 18H23ZM22 13C22 11.8954 21.1046 11 20 11C18.8954 11 18 11.8954 18 13C18 14.1046 18.8954 15 20 15C21.1046 15 22 14.1046 22 13Z" />
	</svg>

	<svg id="double-arrow" viewBox="0 0 11 10" xmlns="http://www.w3.org/2000/svg" fill="currentcolor">
		<line x1="5.21948" y1="8.21399" x2="9.44736" y2="3.98612" stroke-width="1.19582" stroke-linecap="round"/>
		<line x1="5.22791" y1="8.2627" x2="1.00003" y2="4.03482" stroke-width="1.19582" stroke-linecap="round"/>
		<line x1="5.21948" y1="5.02552" x2="9.44736" y2="0.797641" stroke-width="1.19582" stroke-linecap="round"/>
		<line x1="5.22791" y1="5.07324" x2="1.00003" y2="0.845364" stroke-width="1.19582" stroke-linecap="round"/>
	</svg>

	<svg id="search-eye" stroke="currentColor" fill="currentColor" stroke-width="0" viewBox="0 0 24 24" xmlns="http://www.w3.org/2000/svg">
		<path d="M18.031 16.6168L22.3137 20.8995L20.8995 22.3137L16.6168 18.031C15.0769 19.263 13.124 20 11 20C6.032 20 2 15.968 2 11C2 6.032 6.032 2 11 2C15.968 2 20 6.032 20 11C20 13.124 19.263 15.0769 18.031 16.6168ZM16.0247 15.8748C17.2475 14.6146 18 12.8956 18 11C18 7.1325 14.8675 4 11 4C7.1325 4 4 7.1325 4 11C4 14.8675 7.1325 18 11 18C12.8956 18 14.6146 17.2475 15.8748 16.0247L16.0247 15.8748ZM12.1779 7.17624C11.4834 7.48982 11 8.18846 11 9C11 10.1046 11.8954 11 13 11C13.8115 11 14.5102 10.5166 14.8238 9.82212C14.9383 10.1945 15 10.59 15 11C15 13.2091 13.2091 15 11 15C8.79086 15 7 13.2091 7 11C7 8.79086 8.79086 7 11 7C11.41 7 11.8055 7.06167 12.1779 7.17624Z"></path>
	</svg>
</svg>