<svg width="0" height="0">
	<svg id="eye" viewBox="0 0 32 32" xmlns="http://www.w3.org/2000/svg" fill="currentcolor">
		<path fill-rule="evenodd" clip-rule="evenodd" d="M30.9396 15.66C28.5356 9.4417 22.6617 5.25053 15.9996 5C9.33748 5.25053 3.46354 9.4417 1.05957 15.66C0.980142 15.8797 0.980142 16.1203 1.05957 16.34C3.46354 22.5583 9.33748 26.7495 15.9996 27C22.6617 26.7495 28.5356 22.5583 30.9396 16.34C31.019 16.1203 31.019 15.8797 30.9396 15.66ZM10 16C10 12.6863 12.6863 10 16 10C19.3137 10 22 12.6863 22 16C22 19.3137 19.3137 22 16 22C12.6863 22 10 19.3137 10 16ZM12 16C12 18.2091 13.7909 20 16 20C17.0609 20 18.0783 19.5786 18.8284 18.8284C19.5786 18.0783 20 17.0609 20 16C20 13.7909 18.2091 12 16 12C13.7909 12 12 13.7909 12 16ZM3.06957 16C5.09957 21.07 10.6996 25 15.9996 25C21.2996 25 26.8996 21.07 28.9296 16C26.8996 10.93 21.2996 7 15.9996 7C10.6996 7 5.09957 10.93 3.06957 16Z" />
	</svg>

	<svg id="eye-crossed" viewBox="0 0 32 32" xmlns="http://www.w3.org/2000/svg" fill="currentcolor">
		<path fill-rule="evenodd" clip-rule="evenodd" d="M5.23957 22.51L6.66957 21.09C5.10379 19.6841 3.87355 17.9447 3.06957 16C5.09957 10.93 10.6996 7 15.9996 7C17.3635 7.018 18.715 7.26128 19.9996 7.72L21.5496 6.16C19.7922 5.41732 17.9073 5.02335 15.9996 5C9.33748 5.25053 3.46354 9.4417 1.05957 15.66C0.980142 15.8797 0.980142 16.1203 1.05957 16.34C1.94782 18.697 3.38 20.811 5.23957 22.51ZM25.1996 8.22C27.7977 10.087 29.7929 12.6732 30.9396 15.66C31.019 15.8797 31.019 16.1203 30.9396 16.34C28.5356 22.5583 22.6617 26.7495 15.9996 27C13.3636 26.9574 10.7835 26.234 8.50957 24.9L3.40957 30L1.99957 28.59L28.5896 2L29.9996 3.41L25.1996 8.22ZM15.6996 12.03C13.7187 12.1737 12.1433 13.7491 11.9996 15.73L10.1796 17.54C9.63612 15.476 10.23 13.2788 11.7392 11.7696C13.2483 10.2604 15.4456 9.66655 17.5096 10.21L15.6996 12.03ZM19.9996 16C19.991 17.4248 19.2252 18.7374 17.9892 19.4461C16.7531 20.1547 15.2335 20.1524 13.9996 19.44L19.4396 14C19.7991 14.6057 19.9923 15.2957 19.9996 16ZM9.99957 23.42C11.8435 24.4214 13.9016 24.9634 15.9996 25C21.2996 25 26.8996 21.07 28.9296 16C27.8485 13.4354 26.0542 11.235 23.7596 9.66L20.8896 12.53C22.544 14.9143 22.2547 18.141 20.2026 20.1931C18.1506 22.2452 14.9239 22.5344 12.5396 20.88L9.99957 23.42Z" />
	</svg>

	<svg id="double-arrow" viewBox="0 0 11 10" xmlns="http://www.w3.org/2000/svg" fill="currentcolor">
		<line x1="5.21948" y1="8.21399" x2="9.44736" y2="3.98612" stroke-width="1.19582" stroke-linecap="round"/>
		<line x1="5.22791" y1="8.2627" x2="1.00003" y2="4.03482" stroke-width="1.19582" stroke-linecap="round"/>
		<line x1="5.21948" y1="5.02552" x2="9.44736" y2="0.797641" stroke-width="1.19582" stroke-linecap="round"/>
		<line x1="5.22791" y1="5.07324" x2="1.00003" y2="0.845364" stroke-width="1.19582" stroke-linecap="round"/>
	</svg>

	<svg id="search-eye" stroke="currentColor" fill="currentColor" stroke-width="0" viewBox="0 0 24 24" xmlns="http://www.w3.org/2000/svg">
		<path d="M18.031 16.6168L22.3137 20.8995L20.8995 22.3137L16.6168 18.031C15.0769 19.263 13.124 20 11 20C6.032 20 2 15.968 2 11C2 6.032 6.032 2 11 2C15.968 2 20 6.032 20 11C20 13.124 19.263 15.0769 18.031 16.6168ZM16.0247 15.8748C17.2475 14.6146 18 12.8956 18 11C18 7.1325 14.8675 4 11 4C7.1325 4 4 7.1325 4 11C4 14.8675 7.1325 18 11 18C12.8956 18 14.6146 17.2475 15.8748 16.0247L16.0247 15.8748ZM12.1779 7.17624C11.4834 7.48982 11 8.18846 11 9C11 10.1046 11.8954 11 13 11C13.8115 11 14.5102 10.5166 14.8238 9.82212C14.9383 10.1945 15 10.59 15 11C15 13.2091 13.2091 15 11 15C8.79086 15 7 13.2091 7 11C7 8.79086 8.79086 7 11 7C11.41 7 11.8055 7.06167 12.1779 7.17624Z"></path>
	</svg>

	<svg id="close" stroke="currentColor" fill="currentColor" stroke-width="0" viewBox="0 0 24 24" xmlns="http://www.w3.org/2000/svg">
		<path d="M12.0007 10.5865L16.9504 5.63672L18.3646 7.05093L13.4149 12.0007L18.3646 16.9504L16.9504 18.3646L12.0007 13.4149L7.05093 18.3646L5.63672 16.9504L10.5865 12.0007L5.63672 7.05093L7.05093 5.63672L12.0007 10.5865Z"></path>
	</svg>

	<svg id="generate" stroke="currentColor" fill="currentColor" stroke-width="0" viewBox="0 0 24 24" xmlns="http://www.w3.org/2000/svg">
		<path d="M15 5.25C16.7949 5.25 18.25 3.79493 18.25 2H19.75C19.75 3.79493 21.2051 5.25 23 5.25V6.75C21.2051 6.75 19.75 8.20507 19.75 10H18.25C18.25 8.20507 16.7949 6.75 15 6.75V5.25ZM4 7C4 5.89543 4.89543 5 6 5H13V3H6C3.79086 3 2 4.79086 2 7V17C2 19.2091 3.79086 21 6 21H18C20.2091 21 22 19.2091 22 17V12H20V17C20 18.1046 19.1046 19 18 19H6C4.89543 19 4 18.1046 4 17V7Z"></path>
	</svg>

	<svg id="phone" stroke="currentColor" fill="currentColor" stroke-width="0" viewBox="0 0 24 24" xmlns="http://www.w3.org/2000/svg">
		<path d="M21 16.42V19.9561C21 20.4811 20.5941 20.9167 20.0705 20.9537C19.6331 20.9846 19.2763 21 19 21C10.1634 21 3 13.8366 3 5C3 4.72371 3.01545 4.36687 3.04635 3.9295C3.08337 3.40588 3.51894 3 4.04386 3H7.5801C7.83678 3 8.05176 3.19442 8.07753 3.4498C8.10067 3.67907 8.12218 3.86314 8.14207 4.00202C8.34435 5.41472 8.75753 6.75936 9.3487 8.00303C9.44359 8.20265 9.38171 8.44159 9.20185 8.57006L7.04355 10.1118C8.35752 13.1811 10.8189 15.6425 13.8882 16.9565L15.4271 14.8019C15.5572 14.6199 15.799 14.5573 16.001 14.6532C17.2446 15.2439 18.5891 15.6566 20.0016 15.8584C20.1396 15.8782 20.3225 15.8995 20.5502 15.9225C20.8056 15.9483 21 16.1633 21 16.42Z"></path>
	</svg>

	<svg id="attach" fill="currentColor" viewBox="0 0 32 32" xmlns="http://www.w3.org/2000/svg">
		<path fill-rule="evenodd" clip-rule="evenodd" d="M27.0997 17.9002L14.0997 4.90023C11.5334 2.52032 7.54469 2.59545 5.06983 5.07032C2.59497 7.54518 2.51984 11.5339 4.89974 14.1002L7.89974 17.1002L9.30974 15.6902L6.30974 12.6902C5.10582 11.5684 4.61025 9.8789 5.01743 8.2845C5.42461 6.6901 6.66961 5.4451 8.26401 5.03792C9.85841 4.63074 11.5479 5.12631 12.6697 6.33023L25.6697 19.3302C26.8737 20.4521 27.3692 22.1416 26.9621 23.736C26.5549 25.3304 25.3099 26.5754 23.7155 26.9825C22.1211 27.3897 20.4316 26.8941 19.3097 25.6902L13.1797 19.5602C12.5438 18.9279 12.2935 18.0043 12.5232 17.1374C12.7529 16.2705 13.4276 15.5919 14.2932 15.3574C15.1588 15.1228 16.0838 15.3679 16.7197 16.0002L19.8897 19.1702L21.2997 17.7602C21.2997 17.7602 18.0797 14.5302 18.0497 14.5202C16.278 12.884 13.5301 12.9397 11.8261 14.6464C10.1221 16.3531 10.0707 19.1011 11.7097 20.8702L17.8997 27.1002C20.466 29.4801 24.4548 29.405 26.9297 26.9301C29.4045 24.4553 29.4797 20.4665 27.0997 17.9002Z" />
	</svg>

	<svg id="pin" fill="currentColor" viewBox="0 0 32 32" xmlns="http://www.w3.org/2000/svg">
		<path fill-rule="evenodd" clip-rule="evenodd" d="M28.59 13.31L30 11.9L20 2L18.69 3.42L19.87 4.6L8.38 14.32L6.66 12.61L5.25 14L10.91 19.68L2 28.58L3.41 30L12.32 21.09L18 26.75L19.39 25.33L17.68 23.62L27.4 12.13L28.59 13.31ZM16.26 22.2L9.8 15.74L21.29 6L26 10.71L16.26 22.2Z"/>
	</svg>

	<svg id="verified" viewBox="0 0 24 24">
		<path d="M12.3 2.9c.1.1.2.1.3.2.7.6 1.3 1.1 2 1.7.3.2.6.4.9.4.9.1 1.7.2 2.6.2.5 0 .6.1.7.7.1.9.1 1.8.2 2.6 0 .4.2.7.4 1 .6.7 1.1 1.3 1.7 2 .3.4.3.5 0 .8-.5.6-1.1 1.3-1.6 1.9-.3.3-.5.7-.5 1.2-.1.8-.2 1.7-.2 2.5 0 .4-.2.5-.6.6-.8 0-1.6.1-2.5.2-.5 0-1 .2-1.4.5-.6.5-1.3 1.1-1.9 1.6-.3.3-.5.3-.8 0-.7-.6-1.4-1.2-2-1.8-.3-.2-.6-.4-.9-.4-.9-.1-1.8-.2-2.7-.2-.4 0-.5-.2-.6-.5 0-.9-.1-1.7-.2-2.6 0-.4-.2-.8-.4-1.1-.6-.6-1.1-1.3-1.6-2-.4-.4-.3-.5 0-1 .6-.6 1.1-1.3 1.7-1.9.3-.3.4-.6.4-1 0-.8.1-1.6.2-2.5 0-.5.1-.6.6-.6.9-.1 1.7-.1 2.6-.2.4 0 .7-.2 1-.4.7-.6 1.4-1.2 2.1-1.7.1-.2.3-.3.5-.2z" style="fill: var(--color-fill);fill: var(--color-accent-1000);"></path>
		<path d="M16.4 10.1l-.2.2-5.4 5.4c-.1.1-.2.2-.4 0l-2.6-2.6c-.2-.2-.1-.3 0-.4.2-.2.5-.6.7-.6.3 0 .5.4.7.6l1.1 1.1c.2.2.3.2.5 0l4.3-4.3c.2-.2.4-.3.6 0 .1.2.3.3.4.5.2 0 .3.1.3.1z" style="fill: var(--color-primary-1000);"></path>
	</svg>

	<svg id="check" viewBox="0 0 24 24" fill="none" stroke="currentColor" xmlns="http://www.w3.org/2000/svg">
		<path d="M6.5 12L10.5 16L18 8" stroke-width="1.2" stroke-linecap="round" stroke-linejoin="round"/>
	</svg>

	<svg id="door-out" viewBox="0 0 32 32" fill="currentColor" xmlns="http://www.w3.org/2000/svg">
		<path fill-rule="evenodd" clip-rule="evenodd" d="M6 30H18C19.1041 29.9989 19.9989 29.1041 20 28V25H18V28H6V4H18V7H20V4C19.9989 2.89589 19.1041 2.0011 18 2H6C4.89589 2.0011 4.0011 2.89589 4 4V28C4.0011 29.1041 4.89589 29.9989 6 30ZM20.586 20.586L24.172 17H10V15H24.172L20.586 11.414L22 10L28 16L22 22L20.586 20.586Z" />
	</svg>

	<svg id="appendix" width="9" height="20" viewBox="0 0 9 20" fill="currentColor" xmlns="http://www.w3.org/2000/svg">
		<path fill-rule="evenodd" clip-rule="evenodd" d="M6 18H0V1C0.193 3.84 0.876 6.767 2.05 9.782C2.954 12.107 4.496 14.267 6.675 16.262C6.82379 16.398 6.92798 16.5759 6.97391 16.7722C7.01983 16.9685 7.00535 17.1741 6.93236 17.362C6.85938 17.55 6.73129 17.7114 6.5649 17.8253C6.39852 17.9391 6.20161 18 6 18Z"/>
	</svg>

	<svg id="reply" viewBox="0 0 32 32" fill="currentColor" xmlns="http://www.w3.org/2000/svg">
		<path fill-rule="evenodd" clip-rule="evenodd" d="M28.8799 30.0002C28.5177 30.0052 28.181 29.8139 27.9999 29.5002C25.2905 24.8845 20.352 22.0353 14.9999 22.0002V28.0002C14.9979 28.4039 14.7534 28.7668 14.3799 28.9202C14.0075 29.0768 13.5775 28.9939 13.2899 28.7102L1.28994 16.7102C1.10063 16.5224 0.994141 16.2668 0.994141 16.0002C0.994141 15.7335 1.10063 15.4779 1.28994 15.2902L13.2899 3.29017C13.5775 3.00642 14.0075 2.92357 14.3799 3.08017C14.7534 3.23357 14.9979 3.59646 14.9999 4.00017V10.1102C23.5578 11.2094 29.9749 18.4821 29.9999 27.1102C29.9976 27.7789 29.9542 28.4468 29.8699 29.1102C29.8187 29.5368 29.5007 29.883 29.0799 29.9702L28.8799 30.0002ZM14.4999 20.0002C19.6616 19.926 24.5961 22.1192 27.9999 26.0002C27.3785 18.5066 21.4073 12.5736 13.9099 12.0002C13.3931 11.9535 12.9978 11.5191 12.9999 11.0002V6.41017L3.40994 16.0002L12.9999 25.5902V21.0002C12.9999 20.4479 13.4477 20.0002 13.9999 20.0002H14.5399H14.4999Z"/>
	</svg>

	<svg id="edit" viewBox="0 0 32 32" fill="currentColor" xmlns="http://www.w3.org/2000/svg">
		<path fill-rule="evenodd" clip-rule="evenodd" d="M2 27H30V29H2V27ZM25.41 8.99999C25.7856 8.62486 25.9966 8.11581 25.9966 7.58499C25.9966 7.05417 25.7856 6.54513 25.41 6.16999L21.83 2.58999C21.4549 2.21444 20.9458 2.00342 20.415 2.00342C19.8842 2.00342 19.3751 2.21444 19 2.58999L4 17.59V24H10.41L25.41 8.99999ZM20.41 3.99999L24 7.58999L21 10.59L17.41 6.99999L20.41 3.99999ZM6 22V18.41L16 8.40999L19.59 12L9.59 22H6Z"/>
	</svg>

	<svg id="copy" viewBox="0 0 32 32" fill="currentColor" xmlns="http://www.w3.org/2000/svg">
		<path fill-rule="evenodd" clip-rule="evenodd" d="M5 19H3V5C3 3.89543 3.89543 3 5 3H19V5H5V19ZM8 10C8 8.89543 8.89543 8 10 8H28C29.1046 8 30 8.89543 30 10V28C30 29.1046 29.1046 30 28 30H10C8.89543 30 8 29.1046 8 28V10ZM28 10V28H10V10H28Z" />
	</svg>

	<svg id="image" viewBox="0 0 32 32" fill="currentColor" xmlns="http://www.w3.org/2000/svg">
		<path fill-rule="evenodd" clip-rule="evenodd" d="M26 4H6C4.89543 4 4 4.89543 4 6V26C4 27.1046 4.89543 28 6 28H26C27.1046 28 28 27.1046 28 26V6C28 4.89543 27.1046 4 26 4ZM26 26H6V20L11 15L16.59 20.59C17.3701 21.3654 18.6299 21.3654 19.41 20.59L21 19L26 24V26ZM22.41 17.58L26 21.17V6H6V17.17L9.59 13.58C10.3701 12.8046 11.6299 12.8046 12.41 13.58L18 19.17L19.59 17.58C20.3701 16.8046 21.6299 16.8046 22.41 17.58Z" />
	</svg>

	<svg id="file" viewBox="0 0 32 32" fill="currentColor" xmlns="http://www.w3.org/2000/svg">
		<path fill-rule="evenodd" clip-rule="evenodd" d="M25.7 9.29984L18.7 2.29984C18.5217 2.10232 18.266 1.9927 18 1.99984H8C6.89543 1.99984 6 2.89527 6 3.99984V27.9998C6 29.1044 6.89543 29.9998 8 29.9998H24C25.1046 29.9998 26 29.1044 26 27.9998V9.99984C26.0071 9.73387 25.8975 9.4781 25.7 9.29984ZM18 4.39984L23.6 9.99984H18V4.39984ZM8 3.99984V27.9998H24V11.9998H18C16.8954 11.9998 16 11.1044 16 9.99984V3.99984H8Z" />
	</svg>

	<svg id="trash-bin" viewBox="0 0 32 32" fill="currentColor" xmlns="http://www.w3.org/2000/svg">
		<path fill-rule="evenodd" clip-rule="evenodd" d="M20 2H12V4H20V2ZM4 6V8H6V28C6 29.1046 6.89543 30 8 30H24C25.1046 30 26 29.1046 26 28V8H28V6H4ZM8 28V8H24V28H8ZM12 12H14V24H12V12ZM20 12H18V24H20V12Z" />
	</svg>
</svg>