<?xml version="1.0" standalone="no"?>
<!DOCTYPE svg PUBLIC "-//W3C//DTD SVG 20010904//EN"
 "http://www.w3.org/TR/2001/REC-SVG-20010904/DTD/svg10.dtd">
<svg version="1.0" xmlns="http://www.w3.org/2000/svg"
 width="704.000000pt" height="704.000000pt" viewBox="0 0 704.000000 704.000000"
 preserveAspectRatio="xMidYMid meet">
<metadata>
Created by potrace 1.14, written by Peter Selinger 2001-2017
</metadata>
<g transform="translate(0.000000,704.000000) scale(0.100000,-0.100000)"
fill="#000000" stroke="none">
<path d="M1403 6589 c-13 -5 -23 -6 -23 -4 0 7 -106 -41 -126 -57 -42 -33
-114 -112 -114 -124 0 -8 -4 -14 -10 -14 -5 0 -10 -5 -10 -11 0 -8 -59 -156
-90 -224 -5 -11 -44 -103 -86 -205 -42 -102 -83 -201 -91 -220 -24 -56 -86
-204 -102 -245 -5 -11 -13 -31 -19 -45 -21 -50 -71 -167 -117 -280 -63 -153
-154 -370 -165 -395 -20 -46 -109 -262 -119 -288 -6 -15 -20 -47 -31 -71 -11
-25 -20 -47 -20 -50 0 -3 -11 -29 -24 -58 -13 -29 -40 -93 -60 -143 -21 -49
-53 -126 -71 -170 -31 -75 -49 -148 -49 -205 0 -32 14 -112 23 -125 3 -5 6
-12 6 -15 3 -24 47 -89 100 -145 35 -37 74 -88 86 -112 22 -42 84 -105 298
-303 57 -52 127 -117 156 -145 64 -60 251 -234 275 -255 26 -23 237 -219 290
-270 26 -25 85 -79 130 -120 45 -41 106 -97 135 -125 29 -27 92 -86 140 -130
47 -44 106 -98 129 -120 23 -22 91 -85 151 -140 60 -55 127 -118 150 -140 23
-22 79 -74 124 -115 45 -41 101 -93 125 -115 23 -22 93 -87 155 -145 63 -58
126 -116 140 -130 15 -14 76 -70 135 -125 59 -55 125 -116 145 -135 45 -42
243 -225 324 -300 78 -72 113 -95 183 -118 71 -24 226 -23 250 1 4 4 13 7 21
7 35 0 118 68 342 278 48 46 198 185 309 287 30 28 71 66 92 85 20 19 86 80
145 135 59 55 125 116 145 135 51 48 246 229 279 259 14 13 75 69 135 125 121
112 129 119 282 262 60 56 123 115 140 130 28 26 186 173 268 249 18 17 84 78
147 137 63 58 128 119 144 134 17 15 62 57 101 93 169 157 303 282 358 332
206 189 257 243 286 304 54 113 57 215 11 333 -23 59 -108 266 -127 310 -27
63 -43 99 -119 282 -42 102 -82 199 -90 215 -7 17 -27 64 -43 105 -16 41 -55
136 -87 210 -72 173 -70 169 -88 210 -8 19 -48 114 -87 210 -40 96 -80 193
-90 215 -10 22 -44 103 -75 180 -54 132 -100 242 -130 310 -7 17 -28 66 -46
110 -18 44 -54 112 -81 151 -26 39 -48 77 -48 83 0 6 -42 53 -93 105 -94 94
-167 140 -239 154 -63 11 -163 6 -217 -13 -57 -19 -619 -383 -629 -407 -2 -4
-8 -8 -13 -8 -5 0 -232 -149 -505 -331 -273 -182 -511 -337 -529 -345 -131
-54 -279 -33 -413 61 -24 16 -51 35 -60 40 -33 20 -197 130 -202 135 -6 7 -61
43 -75 50 -5 3 -158 104 -338 225 -180 121 -336 225 -345 230 -27 17 -197 130
-202 135 -26 26 -299 195 -341 211 -57 22 -179 32 -216 18z m562 -896 c35 -10
190 -107 505 -316 250 -166 457 -305 458 -309 2 -5 7 -8 12 -8 7 0 202 -128
227 -150 7 -5 14 -10 17 -10 2 0 40 -24 83 -54 160 -110 219 -136 313 -139 76
-2 136 9 184 34 36 18 343 216 356 229 3 3 70 48 150 100 80 52 147 97 150
100 3 3 37 25 75 50 39 25 72 47 75 50 3 3 84 57 180 120 96 63 177 117 180
120 3 3 43 30 90 60 47 30 87 58 90 62 3 4 37 22 75 39 95 45 204 50 303 14
39 -14 73 -34 82 -47 8 -12 34 -69 57 -127 24 -58 47 -115 52 -126 16 -36 38
-89 76 -180 20 -49 42 -103 50 -120 7 -16 23 -54 35 -84 11 -30 30 -73 40 -96
10 -23 29 -66 40 -96 25 -62 37 -92 71 -168 13 -30 24 -57 25 -60 0 -3 6 -17
11 -31 57 -132 199 -477 215 -520 38 -105 21 -243 -42 -341 -30 -45 -58 -73
-290 -289 -57 -52 -120 -111 -140 -130 -52 -48 -237 -220 -269 -249 -14 -13
-75 -70 -136 -127 -60 -56 -123 -115 -140 -130 -16 -15 -82 -75 -145 -134 -63
-59 -139 -130 -168 -156 -29 -27 -77 -71 -105 -98 -29 -26 -96 -89 -150 -140
-55 -50 -121 -111 -147 -136 -26 -25 -85 -79 -130 -120 -45 -41 -104 -96 -130
-121 -27 -25 -94 -88 -150 -139 -56 -52 -128 -119 -161 -150 -120 -114 -233
-216 -268 -242 -89 -65 -220 -89 -329 -61 -105 27 -110 32 -411 313 -41 38
-101 93 -286 265 -65 61 -133 124 -150 140 -18 17 -79 73 -135 125 -57 52
-120 111 -140 130 -20 19 -81 76 -135 125 -54 50 -119 110 -145 135 -26 25
-94 88 -150 140 -57 52 -135 124 -173 160 -38 36 -87 81 -108 100 -129 120
-330 307 -420 391 -20 19 -78 72 -129 119 -150 138 -157 145 -166 171 -4 13
-9 35 -10 49 -1 14 -3 27 -4 30 -14 31 8 154 41 228 11 26 24 56 28 67 5 11
13 31 19 45 6 14 17 41 26 60 67 159 428 1027 430 1035 1 6 9 26 18 45 9 19
46 107 83 195 87 213 135 279 239 330 29 14 62 27 75 30 13 2 26 6 28 9 10 10
152 2 198 -11z"/>
<path d="M1676 4161 c-10 -11 -20 -36 -23 -55 -5 -38 9 -56 87 -115 19 -14 37
-28 40 -31 3 -3 23 -18 45 -35 22 -16 42 -32 45 -35 3 -3 45 -37 95 -75 49
-39 99 -78 110 -87 11 -9 70 -55 130 -103 61 -47 117 -91 125 -98 8 -7 43 -34
77 -60 34 -26 68 -53 75 -60 35 -32 83 -59 104 -59 22 0 175 87 182 104 2 4 7
8 12 8 7 0 68 37 130 80 8 6 74 48 145 94 194 124 212 145 180 206 -17 33 -24
36 -145 61 -52 11 -104 22 -115 24 -11 3 -35 8 -54 11 -38 6 -37 6 -141 29
-41 9 -86 18 -100 21 -14 2 -36 7 -50 10 -14 3 -34 8 -45 10 -11 2 -45 9 -75
16 -61 13 -74 15 -110 22 -14 2 -101 21 -195 40 -93 20 -181 39 -195 41 -14 3
-36 7 -50 10 -14 3 -38 8 -55 10 -16 3 -43 10 -60 14 -16 5 -37 10 -45 10 -8
1 -35 4 -60 7 -37 5 -49 2 -64 -15z"/>
<path d="M5400 4169 c-19 -5 -51 -11 -70 -15 -19 -3 -55 -10 -80 -16 -25 -5
-56 -12 -70 -14 -14 -3 -45 -10 -70 -15 -25 -6 -52 -12 -60 -14 -35 -6 -96
-18 -105 -21 -5 -1 -21 -4 -35 -7 -14 -3 -36 -8 -50 -11 -14 -3 -36 -8 -50
-11 -27 -5 -112 -23 -147 -30 -13 -3 -35 -7 -50 -10 -16 -3 -39 -8 -53 -11
-14 -3 -36 -8 -50 -11 -14 -2 -45 -9 -70 -14 -25 -6 -56 -13 -70 -15 -14 -3
-90 -19 -170 -36 -80 -17 -154 -32 -165 -33 -11 -2 -23 -4 -26 -4 -14 -2 -47
-38 -53 -57 -7 -22 20 -94 36 -94 7 0 272 -170 295 -190 7 -5 14 -10 17 -10 3
0 53 -32 112 -71 138 -91 189 -118 212 -112 11 2 57 35 103 71 47 37 102 80
124 96 22 17 42 33 45 36 4 5 89 72 194 153 15 12 33 27 40 32 6 6 29 23 51
39 22 17 42 33 45 36 3 3 37 30 75 60 39 30 72 58 73 62 2 5 10 8 17 8 7 0 15
4 17 8 2 4 23 23 48 42 95 73 113 118 65 165 -26 27 -60 30 -125 14z"/>
<path d="M3535 3111 c-27 -9 -61 -22 -75 -30 -36 -19 -110 -102 -117 -131 -3
-14 -10 -30 -15 -37 -5 -7 -7 -17 -3 -23 3 -5 2 -10 -2 -10 -9 0 -8 -55 1
-110 8 -52 58 -130 105 -164 66 -47 106 -60 181 -59 251 3 375 294 205 481
-42 47 -106 80 -172 88 -26 3 -49 6 -52 8 -3 2 -28 -4 -56 -13z"/>
</g>
</svg>
